HIERARCHY
ROOT Hips
{
	OFFSET 0.00000 0.00000 0.00000
	CHANNELS 6 Xposition Yposition Zposition Zrotation Yrotation Xrotation 
	JOINT LHipJoint
	{
		OFFSET 0 0 0
		CHANNELS 3 Zrotation Yrotation Xrotation
		JOINT LeftUpLeg
		{
			OFFSET 1.49846 -1.74315 1.08250
			CHANNELS 3 Zrotation Yrotation Xrotation
			JOINT LeftLeg
			{
				OFFSET 2.40966 -6.62050 0.00000
				CHANNELS 3 Zrotation Yrotation Xrotation
				JOINT LeftFoot
				{
					OFFSET 2.68066 -7.36505 0.00000
					CHANNELS 3 Zrotation Yrotation Xrotation
					JOINT LeftToeBase
					{
						OFFSET 0.14291 -0.39265 2.35870
						CHANNELS 3 Zrotation Yrotation Xrotation
						End Site
						{
							OFFSET 0.00000 -0.00000 1.20470
						}
					}
				}
			}
		}
	}
	JOINT RHipJoint
	{
		OFFSET 0 0 0
		CHANNELS 3 Zrotation Yrotation Xrotation
		JOINT RightUpLeg
		{
			OFFSET -1.46318 -1.74316 1.08250
			CHANNELS 3 Zrotation Yrotation Xrotation
			JOINT RightLeg
			{
				OFFSET -2.39759 -6.58734 0.00000
				CHANNELS 3 Zrotation Yrotation Xrotation
				JOINT RightFoot
				{
					OFFSET -2.63570 -7.24154 0.00000
					CHANNELS 3 Zrotation Yrotation Xrotation
					JOINT RightToeBase
					{
						OFFSET -0.17578 -0.48294 2.47180
						CHANNELS 3 Zrotation Yrotation Xrotation
						End Site
						{
							OFFSET -0.00000 -0.00000 1.26600
						}
					}
				}
			}
		}
	}
	JOINT LowerBack
	{
		OFFSET 0 0 0
		CHANNELS 3 Zrotation Yrotation Xrotation
		JOINT Spine
		{
			OFFSET 0.00843 2.19877 -0.20423
			CHANNELS 3 Zrotation Yrotation Xrotation
			JOINT Spine1
			{
				OFFSET -0.03080 2.21436 -0.05138
				CHANNELS 3 Zrotation Yrotation Xrotation
				JOINT Neck
				{
					OFFSET 0 0 0
					CHANNELS 3 Zrotation Yrotation Xrotation
					JOINT Neck1
					{
						OFFSET -0.04063 1.58841 0.30440
						CHANNELS 3 Zrotation Yrotation Xrotation
						JOINT Head
						{
							OFFSET 0.09277 1.59484 -0.39337
							CHANNELS 3 Zrotation Yrotation Xrotation
							End Site
							{
								OFFSET 0.03488 1.66530 -0.17040
							}
						}
					}
				}
				JOINT LeftShoulder
				{
					OFFSET 0 0 0
					CHANNELS 3 Zrotation Yrotation Xrotation
					JOINT LeftArm
					{
						OFFSET 3.03849 1.31522 0.02556
						CHANNELS 3 Zrotation Yrotation Xrotation
						JOINT LeftForeArm
						{
							OFFSET 5.25537 -0.00000 0.00000
							CHANNELS 3 Zrotation Yrotation Xrotation
							JOINT LeftHand
							{
								OFFSET 3.38855 -0.00000 -0.00000
								CHANNELS 3 Zrotation Yrotation Xrotation
								JOINT LeftFingerBase
								{
									OFFSET 0 0 0
									CHANNELS 3 Zrotation Yrotation Xrotation
									JOINT LeftHandIndex1
									{
										OFFSET 0.61452 -0.00000 0.00000
										CHANNELS 3 Zrotation Yrotation Xrotation
										End Site
										{
											OFFSET 0.49544 -0.00000 0.00000
										}
									}
								}
								JOINT LThumb
								{
									OFFSET 0 0 0
									CHANNELS 3 Zrotation Yrotation Xrotation
									End Site
									{
										OFFSET 0.50300 -0.00000 0.50300
									}
								}
							}
						}
					}
				}
				JOINT RightShoulder
				{
					OFFSET 0 0 0
					CHANNELS 3 Zrotation Yrotation Xrotation
					JOINT RightArm
					{
						OFFSET -3.06926 1.12091 -0.13185
						CHANNELS 3 Zrotation Yrotation Xrotation
						JOINT RightForeArm
						{
							OFFSET -5.38183 -0.00000 0.00000
							CHANNELS 3 Zrotation Yrotation Xrotation
							JOINT RightHand
							{
								OFFSET -3.16988 -0.00000 0.00000
								CHANNELS 3 Zrotation Yrotation Xrotation
								JOINT RightFingerBase
								{
									OFFSET 0 0 0
									CHANNELS 3 Zrotation Yrotation Xrotation
									JOINT RightHandIndex1
									{
										OFFSET -0.63768 -0.00000 0.00000
										CHANNELS 3 Zrotation Yrotation Xrotation
										End Site
										{
											OFFSET -0.51411 -0.00000 0.00000
										}
									}
								}
								JOINT RThumb
								{
									OFFSET 0 0 0
									CHANNELS 3 Zrotation Yrotation Xrotation
									End Site
									{
										OFFSET -0.52196 -0.00000 0.52196
									}
								}
							}
						}
					}
				}
			}
		}
	}
}
MOTION
Frames: 13
Frame Time: .0083333
4.4452 11.8241 7.6052 -1.2048 -3.2734 58.1739 0.0000 0.0000 0.0000 -17.4022 -2.6646 -20.9575 16.4020 19.6868 79.4272 0.1487 3.4029 6.9006 0.0221 0.9607 2.6408 0.0000 0.0000 0.0000 11.8454 2.0326 -24.1677 -17.1247 -19.8006 81.5663 -0.0575 -1.3632 -5.2482 -0.1785 2.7211 -7.5032 -3.1072 0.4874 22.2161 -2.6074 -0.5133 -0.3390 -0.9931 -0.1423 -12.9157 -8.8841 -6.2244 -19.6634 16.6736 -6.9416 -4.1566 6.0665 -2.7791 2.9001 -0.0000 0.0000 0.0000 -37.9932 -44.4707 58.7762 150.0058 -40.8884 -108.5942 -0.0000 0.0000 -12.8458 51.1668 15.0597 17.8888 -7.1250 0.0000 -0.0000 24.5117 51.5040 4.1354 -0.0000 0.0000 0.0000 32.7693 44.7512 58.8650 -150.0530 40.8479 -108.6251 0.0000 -0.0000 -26.5715 -50.4370 7.7122 -9.2260 7.1250 -0.0000 -0.0000 -16.4890 -18.2366 -10.9642
4.4459 11.8279 7.6249 -1.1918 -3.2881 58.0474 0.0000 0.0000 0.0000 -17.3069 -2.5591 -21.4371 16.7445 19.7440 80.4424 0.1412 3.4296 6.7358 0.0238 0.9967 2.7398 0.0000 0.0000 0.0000 11.6166 1.7834 -24.5948 -17.4565 -19.8442 82.5447 -0.0630 -1.1313 -5.2992 -0.1882 2.7943 -7.7065 -3.1387 0.4572 22.2364 -2.5990 -0.5662 -0.4599 -0.9512 -0.1624 -13.0672 -8.8109 -6.2346 -19.9064 16.5752 -6.9652 -4.0455 6.0171 -2.7806 2.9635 -0.0000 0.0000 0.0000 -38.4288 -44.8204 58.6205 150.3724 -40.5721 -108.8334 -0.0000 0.0000 -12.1941 51.1963 14.9185 17.7527 -7.1250 0.0000 -0.0000 24.4848 51.3195 4.0151 -0.0000 0.0000 0.0000 33.7532 45.2323 58.8501 -150.3689 40.5751 -108.8311 0.0000 -0.0000 -26.2756 -50.6739 8.0215 -9.6665 7.1250 -0.0000 -0.0000 -16.5644 -17.7286 -11.2137
4.4466 11.8316 7.6418 -1.1789 -3.3121 57.9259 0.0000 0.0000 0.0000 -17.2274 -2.4623 -21.9117 17.0925 19.7961 81.4714 0.1338 3.4534 6.5728 0.0263 1.0467 2.8773 0.0000 0.0000 0.0000 11.3670 1.5195 -25.0182 -17.7956 -19.8831 83.5428 -0.0694 -0.8716 -5.3768 -0.1978 2.8642 -7.9009 -3.1810 0.4344 22.2649 -2.5920 -0.6130 -0.5826 -0.9066 -0.1789 -13.2258 -8.7337 -6.2456 -20.1809 16.4707 -6.9909 -3.9127 5.9644 -2.7814 3.0376 0.0000 -0.0000 0.0000 -38.8488 -45.1929 58.4811 150.7243 -40.2644 -109.0616 -0.0000 0.0000 -11.6001 51.2091 14.7786 17.6076 -7.1250 0.0000 -0.0000 24.4393 51.1331 3.8904 0.0000 -0.0000 0.0000 34.7102 45.7206 58.8391 -150.6685 40.3135 -109.0254 0.0000 -0.0000 -26.0917 -50.9136 8.3814 -10.1733 7.1250 -0.0000 -0.0000 -16.6271 -17.1418 -11.4848
4.4471 11.8352 7.6569 -1.1639 -3.3439 57.8096 0.0000 0.0000 0.0000 -17.1587 -2.3590 -22.3790 17.4408 19.8422 82.4984 0.1276 3.4423 6.4274 0.0280 1.0797 2.9680 0.0000 0.0000 0.0000 11.0986 1.2409 -25.4337 -18.1385 -19.9167 84.5501 -0.0764 -0.5884 -5.4709 -0.2091 2.9441 -8.1232 -3.2335 0.4177 22.3023 -2.5857 -0.6554 -0.7089 -0.8585 -0.1924 -13.3939 -8.6621 -6.2586 -20.4771 16.3679 -7.0184 -3.7658 5.9128 -2.7817 3.1197 -0.0000 -0.0000 0.0000 -39.2371 -45.5931 58.3293 151.0688 -39.9595 -109.2835 -0.0000 0.0000 -11.0555 51.2003 14.7213 17.5398 -7.1250 0.0000 -0.0000 24.4036 51.0517 3.8333 -0.0000 -0.0000 0.0000 35.6480 46.2182 58.8417 -150.9521 40.0633 -109.2084 0.0000 -0.0000 -25.9997 -51.1323 8.7616 -10.7023 7.1250 -0.0000 -0.0000 -16.6695 -16.5264 -11.7518
4.4476 11.8391 7.6714 -1.1510 -3.3795 57.6984 0.0000 0.0000 0.0000 -17.0840 -2.2256 -22.8371 17.7842 19.8819 83.5091 0.1228 3.3789 6.3067 0.0300 1.1175 3.0721 0.0000 0.0000 0.0000 10.8233 0.9601 -25.8297 -18.4807 -19.9446 85.5538 -0.0836 -0.2879 -5.5746 -0.2229 3.0389 -8.3871 -3.2900 0.4073 22.3526 -2.5793 -0.6918 -0.8417 -0.8101 -0.2026 -13.5774 -8.5995 -6.2721 -20.7852 16.2677 -7.0450 -3.6087 5.8635 -2.7805 3.2068 -0.0000 -0.0000 0.0000 -39.5746 -46.0274 58.1506 151.3934 -39.6687 -109.4913 -0.0000 0.0000 -10.5230 51.2218 14.7533 17.5874 -7.1250 0.0000 -0.0000 24.4427 51.1013 3.8711 -0.0000 -0.0000 0.0000 36.5688 46.7198 58.8732 -151.2217 39.8229 -109.3816 0.0000 -0.0000 -25.9732 -51.2970 9.1162 -11.1854 7.1250 -0.0000 -0.0000 -16.6828 -15.9595 -11.9776
4.4479 11.8434 7.6867 -1.1393 -3.4112 57.5955 0.0000 0.0000 0.0000 -16.9916 -2.0505 -23.2865 18.1180 19.9149 84.4899 0.1202 3.2500 6.2256 0.0317 1.1486 3.1578 0.0000 0.0000 0.0000 10.5481 0.6670 -26.1995 -18.8164 -19.9664 86.5377 -0.0905 0.0231 -5.6727 -0.2395 3.1494 -8.6949 -3.3448 0.4002 22.4125 -2.5695 -0.7240 -0.9818 -0.7603 -0.2106 -13.7755 -8.5467 -6.2872 -21.1026 16.1702 -7.0716 -3.4474 5.8168 -2.7787 3.2970 0.0000 0.0000 0.0000 -39.8444 -46.5001 57.9398 151.6910 -39.3992 -109.6808 -0.0000 0.0000 -10.0083 51.3319 14.8524 17.7611 -7.1250 0.0000 -0.0000 24.6158 51.2672 4.0059 0.0000 0.0000 0.0000 37.4846 47.2241 58.9394 -151.4802 39.5904 -109.5467 0.0000 -0.0000 -25.9917 -51.3900 9.4329 -11.5979 7.1250 -0.0000 -0.0000 -16.6598 -15.4662 -12.1457
4.4482 11.8478 7.7032 -1.1320 -3.4275 57.5065 0.0000 0.0000 0.0000 -16.8677 -1.8344 -23.7288 18.4412 19.9416 85.4380 0.1191 3.0639 6.1764 0.0333 1.1782 3.2392 0.0000 0.0000 0.0000 10.2839 0.3545 -26.5448 -19.1441 -19.9824 87.4969 -0.0968 0.3452 -5.7609 -0.2595 3.2774 -9.0519 -3.3834 0.3925 22.4709 -2.5540 -0.7522 -1.1276 -0.7148 -0.2173 -13.9801 -8.5035 -6.3076 -21.4496 16.0762 -7.1027 -3.2718 5.7721 -2.7773 3.3968 0.0000 0.0000 0.0000 -40.0457 -47.0158 57.6916 151.9621 -39.1511 -109.8524 -0.0000 0.0000 -9.5419 51.5456 14.9839 18.0338 -7.1250 0.0000 -0.0000 24.9269 51.5047 4.2136 0.0000 0.0000 0.0000 38.3921 47.7334 59.0113 -151.7278 39.3656 -109.7041 0.0000 -0.0000 -26.0207 -51.4313 9.6857 -11.9142 7.1250 -0.0000 -0.0000 -16.6205 -15.0813 -12.2586
4.4482 11.8523 7.7215 -1.1201 -3.4268 57.4341 0.0000 0.0000 0.0000 -16.7132 -1.5780 -24.1628 18.7524 19.9626 86.3500 0.1192 2.8323 6.1563 0.0341 1.1923 3.2781 0.0000 0.0000 0.0000 10.0276 0.0129 -26.8647 -19.4629 -19.9931 88.4293 -0.1026 0.6790 -5.8454 -0.2823 3.4170 -9.4420 -3.4117 0.3817 22.5257 -2.5325 -0.7811 -1.2820 -0.6679 -0.2245 -14.1933 -8.4386 -6.3312 -21.8563 15.9545 -7.1439 -3.0478 5.7130 -2.7783 3.5186 0.0000 0.0000 0.0000 -40.1815 -47.5730 57.4067 152.2017 -38.9299 -110.0033 -0.0000 0.0000 -9.1570 51.8957 15.0822 18.3558 -7.1250 0.0000 -0.0000 25.3896 51.7360 4.4509 0.0000 0.0000 0.0000 39.2775 48.2435 59.0690 -151.9563 39.1564 -109.8487 0.0000 -0.0000 -25.9408 -51.4432 9.7931 -12.0461 7.1250 -0.0000 -0.0000 -16.6002 -14.9193 -12.3028
4.4484 11.8565 7.7388 -1.1124 -3.4134 57.3788 0.0000 0.0000 0.0000 -16.5413 -1.3105 -24.5898 19.0573 19.9787 87.2429 0.1195 2.6097 6.1469 0.0348 1.2037 3.3095 0.0000 0.0000 0.0000 9.7732 -0.3504 -27.1778 -19.7795 -19.9988 89.3553 -0.1076 1.0273 -5.9183 -0.3070 3.5620 -9.8476 -3.4250 0.3701 22.5690 -2.5080 -0.8061 -1.4380 -0.6274 -0.2308 -14.4026 -8.3580 -6.3586 -22.3215 15.8146 -7.1928 -2.7926 5.6440 -2.7809 3.6574 0.0000 0.0000 0.0000 -40.2836 -48.1581 57.1007 152.4216 -38.7252 -110.1412 -0.0000 0.0000 -8.8452 52.2791 15.1619 18.6828 -7.1250 0.0000 -0.0000 25.8900 51.9537 4.6931 0.0000 0.0000 0.0000 40.1619 48.7595 59.0824 -152.1752 38.9544 -109.9867 0.0000 -0.0000 -25.8984 -51.4578 9.8934 -12.1709 7.1250 -0.0000 -0.0000 -16.5836 -14.7670 -12.3459
4.4486 11.8606 7.7553 -1.1072 -3.3896 57.3432 0.0000 0.0000 0.0000 -16.3547 -1.0318 -25.0109 19.3562 19.9901 88.1174 0.1191 2.4098 6.1311 0.0347 1.2020 3.3048 0.0000 0.0000 0.0000 9.5172 -0.7367 -27.4863 -20.0951 -19.9998 90.2781 -0.1121 1.3897 -5.9894 -0.3322 3.7044 -10.2464 -3.4268 0.3578 22.6008 -2.4810 -0.8280 -1.5967 -0.5915 -0.2363 -14.6090 -8.2751 -6.3903 -22.8157 15.6709 -7.2468 -2.5314 5.5728 -2.7852 3.8023 0.0000 -0.0000 0.0000 -40.3594 -48.7683 56.7441 152.6322 -38.5277 -110.2726 -0.0000 0.0000 -8.6500 52.6392 15.1876 18.9393 -7.1250 0.0000 -0.0000 26.3412 52.0927 4.8785 0.0000 -0.0000 0.0000 41.0360 49.2802 59.0260 -152.3731 38.7705 -110.1109 0.0000 -0.0000 -25.8332 -51.5149 9.9817 -12.2995 7.1250 -0.0000 -0.0000 -16.5966 -14.6205 -12.4110
4.4488 11.8647 7.7707 -1.1106 -3.3599 57.3226 0.0000 0.0000 0.0000 -16.1526 -0.7322 -25.4229 19.6499 19.9971 88.9763 0.1182 2.2398 6.1037 0.0347 1.2029 3.3072 0.0000 0.0000 0.0000 9.2583 -1.1387 -27.7881 -20.4115 -19.9959 91.2031 -0.1159 1.7630 -6.0587 -0.3586 3.8468 -10.6462 -3.4170 0.3477 22.6266 -2.4537 -0.8435 -1.7543 -0.5639 -0.2399 -14.8116 -8.1804 -6.4253 -23.3443 15.5181 -7.3066 -2.2636 5.4958 -2.7916 3.9536 0.0000 -0.0000 0.0000 -40.4058 -49.4052 56.3055 152.8359 -38.3353 -110.3993 -0.0000 0.0000 -8.5674 52.9355 15.1729 19.1122 -7.1250 0.0000 -0.0000 26.6964 52.1580 4.9971 0.0000 -0.0000 0.0000 41.8905 49.8042 58.9191 -152.5545 38.6007 -110.2242 0.0000 -0.0000 -25.8087 -51.6165 10.0945 -12.4767 7.1250 -0.0000 -0.0000 -16.6309 -14.4246 -12.5119
4.4491 11.8690 7.7849 -1.1201 -3.3306 57.3156 0.0000 0.0000 0.0000 -15.9421 -0.4119 -25.8238 19.9382 19.9999 89.8192 0.1164 2.0993 6.0589 0.0345 1.1993 3.2975 0.0000 0.0000 0.0000 8.9888 -1.5523 -28.0821 -20.7291 -19.9872 92.1322 -0.1193 2.1520 -6.1331 -0.3825 3.9719 -10.9975 -3.4032 0.3406 22.6482 -2.4275 -0.8536 -1.9093 -0.5416 -0.2415 -15.0095 -8.0819 -6.4637 -23.8998 15.3642 -7.3703 -1.9962 5.4174 -2.7992 4.1087 -0.0000 -0.0000 0.0000 -40.4198 -50.0689 55.7438 153.0409 -38.1401 -110.5262 -0.0000 0.0000 -8.6278 53.1918 15.1515 19.2533 -7.1250 0.0000 -0.0000 27.0013 52.2043 5.0935 -0.0000 -0.0000 0.0000 42.7120 50.3386 58.7390 -152.7146 38.4500 -110.3239 0.0000 -0.0000 -25.8181 -51.7486 10.2281 -12.6930 7.1250 -0.0000 -0.0000 -16.6786 -14.1884 -12.6391
4.4494 11.8735 7.7984 -1.1358 -3.3046 57.3207 0.0000 0.0000 0.0000 -15.7265 -0.0708 -26.2084 20.2201 19.9988 90.6434 0.1134 1.9854 5.9822 0.0345 1.1996 3.2981 0.0000 0.0000 0.0000 8.7082 -1.9681 -28.3638 -21.0474 -19.9737 93.0638 -0.1224 2.5516 -6.2189 -0.4068 4.0947 -11.3432 -3.3881 0.3376 22.6671 -2.4035 -0.8579 -2.0605 -0.5243 -0.2407 -15.2019 -7.9796 -6.5034 -24.4811 15.2089 -7.4352 -1.7297 5.3376 -2.8069 4.2667 -0.0000 -0.0000 0.0000 -40.4078 -50.7487 55.0575 153.2449 -37.9447 -110.6519 -0.0000 0.0000 -8.7822 53.3863 15.1548 19.3838 -7.1250 0.0000 -0.0000 27.2432 52.2657 5.1879 -0.0000 -0.0000 0.0000 43.4832 50.8852 58.4874 -152.8464 38.3252 -110.4058 0.0000 -0.0000 -25.8202 -51.9104 10.3379 -12.8956 7.1250 -0.0000 -0.0000 -16.7507 -13.9778 -12.7776
